<svg width="26" height="26" viewBox="0 0 26 26" fill="none" xmlns="http://www.w3.org/2000/svg">
<path fill-rule="evenodd" clip-rule="evenodd" d="M7.58325 4.33334C7.29593 4.33334 7.02038 4.44747 6.81722 4.65064C6.61406 4.8538 6.49992 5.12935 6.49992 5.41667V20.6449L12.3702 16.4518C12.7469 16.1827 13.2529 16.1827 13.6296 16.4518L19.4999 20.6449V5.41667C19.4999 5.12935 19.3858 4.8538 19.1826 4.65064C18.9795 4.44747 18.7039 4.33334 18.4166 4.33334H7.58325ZM5.28515 3.11857C5.89465 2.50908 6.7213 2.16667 7.58325 2.16667H18.4166C19.2785 2.16667 20.1052 2.50908 20.7147 3.11857C21.3242 3.72807 21.6666 4.55472 21.6666 5.41667V22.75C21.6666 23.1558 21.4398 23.5276 21.079 23.7133C20.7181 23.899 20.2838 23.8674 19.9536 23.6316L12.9999 18.6647L6.04626 23.6316C5.71604 23.8674 5.2817 23.899 4.92087 23.7133C4.56004 23.5276 4.33325 23.1558 4.33325 22.75V5.41667C4.33325 4.55472 4.67566 3.72807 5.28515 3.11857Z" fill="#2D2C2C"/>
</svg>
